<svg width="74" height="74" viewBox="0 0 74 74" fill="none" xmlns="http://www.w3.org/2000/svg">
<path d="M1.56691 36.5576C1.56519 42.775 3.18975 48.8459 6.27882 54.1968L1.27148 72.4794L19.9814 67.5736C25.1564 70.3908 30.9545 71.867 36.8466 71.8673H36.862C56.3129 71.8673 72.1463 56.0396 72.1546 36.5854C72.1583 27.1584 68.4904 18.2939 61.8264 11.6247C55.1636 4.95612 46.3022 1.28165 36.8606 1.27734C17.4075 1.27734 1.57523 17.1042 1.5672 36.5576" fill="url(#paint0_linear_3394_5966)"/>
<path d="M0.306899 36.5457C0.304891 42.9868 1.98767 49.2748 5.18688 54.8174L0 73.7553L19.3808 68.6737C24.7209 71.5852 30.7332 73.1203 36.8511 73.1226H36.8669C57.0156 73.1226 73.4177 56.7256 73.4264 36.5749C73.4298 26.8092 69.63 17.6261 62.7279 10.718C55.825 3.81071 46.6467 0.0040155 36.8669 0C16.7148 0 0.31493 16.3947 0.306899 36.5457ZM11.8486 53.8628L11.125 52.7141C8.08292 47.8771 6.47729 42.2876 6.47959 36.548C6.48619 19.799 20.1171 6.1724 36.8784 6.1724C44.9954 6.17584 52.6237 9.34006 58.3613 15.0811C64.0986 20.8227 67.2557 28.455 67.2537 36.5726C67.2462 53.3216 53.615 66.9499 36.8669 66.9499H36.8549C31.4015 66.9471 26.0532 65.4825 21.3889 62.715L20.2789 62.0567L8.77789 65.0721L11.8486 53.8625V53.8628Z" fill="url(#paint1_linear_3394_5966)"/>
<path d="M27.7293 21.2676C27.045 19.7466 26.3248 19.7159 25.674 19.6892C25.1411 19.6663 24.5319 19.668 23.9232 19.668C23.314 19.668 22.3242 19.8972 21.4875 20.8107C20.65 21.7251 18.29 23.9348 18.29 28.429C18.29 32.9235 21.5635 37.2668 22.0199 37.8769C22.4768 38.4858 28.3394 48.0037 37.6244 51.6653C45.3411 54.7081 46.9114 54.1029 48.5862 53.9504C50.2612 53.7983 53.991 51.7413 54.752 49.6082C55.5135 47.4754 55.5135 45.6472 55.2852 45.2651C55.0569 44.8845 54.4476 44.6559 53.5341 44.1993C52.6203 43.7424 48.1292 41.5324 47.292 41.2275C46.4545 40.9229 45.8456 40.7709 45.2364 41.6856C44.6272 42.5988 42.8778 44.6559 42.3446 45.2651C41.812 45.8758 41.2788 45.9518 40.3656 45.4949C39.4515 45.0365 36.5095 44.0731 33.0192 40.9614C30.3036 38.54 28.4702 35.5499 27.9373 34.6352C27.4044 33.722 27.8802 33.2269 28.3383 32.7717C28.7487 32.3624 29.2521 31.705 29.7093 31.1718C30.1647 30.6384 30.3168 30.2577 30.6214 29.6485C30.9263 29.0387 30.7737 28.5053 30.5456 28.0484C30.3168 27.5914 28.5416 23.0737 27.7293 21.2676Z" fill="white"/>
<defs>
<linearGradient id="paint0_linear_3394_5966" x1="36.713" y1="72.4794" x2="36.713" y2="1.27734" gradientUnits="userSpaceOnUse">
<stop stop-color="#00FF9C"/>
<stop offset="1" stop-color="#00FF9C"/>
</linearGradient>
<linearGradient id="paint1_linear_3394_5966" x1="36.7132" y1="73.7553" x2="36.7132" y2="0" gradientUnits="userSpaceOnUse">
<stop stop-color="#F9F9F9"/>
<stop offset="1" stop-color="white"/>
</linearGradient>
</defs>
</svg>
